<?xml version="1.0" standalone="no"?>
<!DOCTYPE svg PUBLIC "-//W3C//DTD SVG 20010904//EN"
 "http://www.w3.org/TR/2001/REC-SVG-20010904/DTD/svg10.dtd">
<svg version="1.0" xmlns="http://www.w3.org/2000/svg"
 width="600.000000pt" height="600.000000pt" viewBox="0 0 600.000000 600.000000"
 preserveAspectRatio="xMidYMid meet">
<metadata>
Created by potrace 1.14, written by Peter Selinger 2001-2017
</metadata>
<g transform="translate(0.000000,600.000000) scale(0.100000,-0.100000)"
fill="#000000" stroke="none">
<path d="M3170 4177 c-3 -2 -27 -7 -55 -10 -216 -22 -470 -147 -643 -317 -179
-174 -316 -433 -347 -655 -14 -105 -17 -251 -5 -342 74 -589 571 -1032 1160
-1034 64 0 171 8 200 16 8 2 31 7 50 10 56 10 204 62 272 96 143 72 318 212
318 253 0 11 -58 78 -137 158 -149 150 -165 159 -212 114 -105 -98 -264 -165
-419 -173 -422 -25 -769 367 -709 802 11 81 16 103 38 158 79 203 230 351 428
421 71 25 104 30 191 33 165 4 302 -42 433 -144 46 -36 63 -44 84 -38 27 6
261 233 282 273 8 15 9 28 1 41 -29 55 -236 197 -367 251 -134 56 -252 81
-413 87 -80 3 -147 3 -150 0z"/>
<path d="M870 4119 c-35 -8 -54 -29 -71 -79 -6 -19 -17 -48 -24 -65 -11 -25
-125 -330 -431 -1153 -19 -52 -102 -274 -184 -494 -83 -220 -150 -408 -150
-419 0 -10 5 -21 12 -25 16 -10 430 -11 467 -2 16 5 35 18 43 30 7 13 47 125
88 250 l75 228 397 0 396 0 81 -243 c69 -205 86 -246 106 -257 18 -10 80 -13
237 -13 291 1 276 0 283 22 5 17 -38 147 -121 364 -8 21 -35 95 -60 165 -25
70 -54 150 -64 177 -21 54 -475 1292 -518 1414 -39 107 -31 105 -303 105 -125
1 -242 -2 -259 -5z m385 -987 c59 -184 104 -336 101 -339 -3 -3 -123 -5 -268
-6 -253 0 -263 0 -261 19 2 29 0 21 138 438 l128 389 28 -84 c15 -46 75 -234
134 -417z"/>
<path d="M4323 4122 c-52 -7 -50 37 -50 -1127 0 -1041 1 -1086 19 -1101 16
-15 62 -17 461 -17 546 0 657 8 822 60 205 64 357 219 401 409 71 310 -63 585
-338 690 -78 29 -103 44 -75 44 28 0 120 59 165 107 102 107 151 228 146 363
-3 87 -8 122 -30 188 -68 204 -284 347 -570 378 -67 7 -906 12 -951 6z m864
-408 c121 -31 184 -112 185 -235 1 -91 -28 -151 -96 -196 -71 -48 -111 -56
-316 -57 l-185 -1 -3 253 -2 253 182 -2 c118 -1 202 -6 235 -15z m46 -874
c106 -25 186 -82 224 -159 13 -26 17 -61 18 -126 0 -80 -3 -95 -27 -135 -35
-60 -62 -84 -133 -117 -60 -27 -62 -28 -302 -31 l-243 -4 0 290 c0 185 4 292
10 294 27 9 406 -1 453 -12z"/>
<path d="M3228 3386 c-296 -80 -392 -463 -169 -675 261 -247 690 -53 674 306
-11 258 -255 436 -505 369z"/>
</g>
</svg>
