<svg xmlns="http://www.w3.org/2000/svg" version="1.1" xmlns:xlink="http://www.w3.org/1999/xlink" xmlns:svgjs="http://svgjs.com/svgjs" width="1000" height="100" preserveAspectRatio="none" viewBox="0 0 1000 100"><g mask="url(&quot;#SvgjsMask1082&quot;)" fill="none"><path d="M0 40.64L10 41.83L20 48.32L30 58.12L40 53.12L50 56.6L60 51.58L70 46.27L80 40.78L90 49.37L100 39.32L110 39.93L120 39.72L130 33.54L140 32.36L150 38.72L160 42.99L170 35.72L180 33.07L190 25.15L200 17.8L210 24.27L220 35.05L230 22.83L240 30.52L250 41.47L260 37.35L270 43.31L280 32.4L290 25.67L300 15.79L310 14.95L320 21.76L330 31.04L340 23.14L350 20.05L360 31.11L370 42.27L380 36.23L390 24.8L400 26.1L410 14.33L420 2.07L430 2.65L440 0.84L450 8.44L460 20.71L470 23.69L480 18.86L490 30L500 18.35L510 26.19L520 19.15L530 29.05L540 39.85L550 47.79L560 40.77L570 48.73L580 51.93L590 56.81L600 59.91L610 49.33L620 58.36L630 51.4L640 42.18L650 45.72L660 55.96L670 53.18L680 51.2L690 42.5L700 42.2L710 33.51L720 23.6L730 20.07L740 15.67L750 8.99L760 6.04L770 17.82L780 7.16L790 16.55L800 8.24L810 12.37L820 1.25L830 8.52L840 2.29L850 14.7L860 5.96L870 11.24L880 3.61L890 8.45L900 12.88L910 15.79L920 20.4L930 20.51L940 23.8L950 29.34L960 40.55L970 42.99L980 48.79L990 37.2L1000 35.31" stroke="rgba(154, 195, 250, 1)" stroke-width="2"></path><path d="M0 40.64L10 41.83L20 48.32L30 58.12L40 53.12L50 56.6L60 51.58L70 46.27L80 40.78L90 49.37L100 39.32L110 39.93L120 39.72L130 33.54L140 32.36L150 38.72L160 42.99L170 35.72L180 33.07L190 25.15L200 17.8L210 24.27L220 35.05L230 22.83L240 30.52L250 41.47L260 37.35L270 43.31L280 32.4L290 25.67L300 15.79L310 14.95L320 21.76L330 31.04L340 23.14L350 20.05L360 31.11L370 42.27L380 36.23L390 24.8L400 26.1L410 14.33L420 2.07L430 2.65L440 0.84L450 8.44L460 20.71L470 23.69L480 18.86L490 30L500 18.35L510 26.19L520 19.15L530 29.05L540 39.85L550 47.79L560 40.77L570 48.73L580 51.93L590 56.81L600 59.91L610 49.33L620 58.36L630 51.4L640 42.18L650 45.72L660 55.96L670 53.18L680 51.2L690 42.5L700 42.2L710 33.51L720 23.6L730 20.07L740 15.67L750 8.99L760 6.04L770 17.82L780 7.16L790 16.55L800 8.24L810 12.37L820 1.25L830 8.52L840 2.29L850 14.7L860 5.96L870 11.24L880 3.61L890 8.45L900 12.88L910 15.79L920 20.4L930 20.51L940 23.8L950 29.34L960 40.55L970 42.99L980 48.79L990 37.2L1000 35.31L1000 100L0 100z" fill="url(#SvgjsLinearGradient1083)"></path></g><defs><mask id="SvgjsMask1082"><rect width="1000" height="100" fill="#ffffff"></rect></mask><linearGradient x1="50%" y1="0%" x2="50%" y2="100%" id="SvgjsLinearGradient1083"><stop stop-opacity="0.65" stop-color="rgba(154, 195, 250, 1)" offset="0"></stop><stop stop-opacity="0" stop-color="#ffffff" offset="0.8"></stop></linearGradient></defs></svg>