<svg xmlns="http://www.w3.org/2000/svg" version="1.1" xmlns:xlink="http://www.w3.org/1999/xlink" xmlns:svgjs="http://svgjs.com/svgjs" width="1430" height="560" preserveAspectRatio="none" viewBox="0 0 1430 560"><g mask="url(&quot;#SvgjsMask1002&quot;)" fill="none"><path d="M715 739.1C829.85 737.54 909.89 637.31 992 557 1075.54 475.3 1177.71 396.65 1184.37 280 1191.27 159.33 1111.44 54.51 1025.59-30.59 940.18-115.25 835.16-190.05 715-185.36 597.97-180.8 502.98-97.03 427.7-7.3 359.73 73.76 324.17 174.23 324.68 280 325.19 385.2 362.25 484.48 430.39 564.61 505.32 652.74 599.33 740.67 715 739.1" fill="rgba(241, 247, 255, 1)"></path><path d="M715 577.07C789.32 576.05 841.1 511.2 894.23 459.23 948.29 406.37 1014.4 355.48 1018.71 280 1023.18 201.92 971.52 134.1 915.97 79.03 860.71 24.25 792.75-24.15 715-21.11 639.28-18.17 577.81 36.04 529.1 94.1 485.12 146.55 462.11 211.56 462.44 280 462.77 348.07 486.75 412.31 530.84 464.16 579.33 521.19 640.16 578.08 715 577.07" fill="rgba(224, 223, 223, 1)"></path><path d="M715 415.03C748.78 414.57 772.32 385.09 796.47 361.47 821.04 337.44 851.09 314.31 853.05 280 855.08 244.51 831.6 213.68 806.35 188.65 781.23 163.75 750.34 141.75 715 143.13 680.58 144.47 652.64 169.11 630.5 195.5 610.51 219.34 600.05 248.89 600.2 280 600.35 310.94 611.25 340.14 631.29 363.71 653.33 389.63 680.98 415.49 715 415.03" fill="rgba(239, 239, 239, 1)"></path></g><defs><mask id="SvgjsMask1002"><rect width="1430" height="560" fill="#ffffff"></rect></mask></defs></svg>