<svg id="Capa_1" enable-background="new 0 0 512 512" height="512" viewBox="0 0 512 512" width="512" xmlns="http://www.w3.org/2000/svg"><g><g><path d="m39.131 196.51v-105.387c0-46.184 37.439-83.623 83.622-83.623h85.416c15.046 0 28.983 7.914 36.691 20.836 26.558-5.181 51.245 15.156 51.245 42.214v125.96z" fill="#365e7d"/><path d="m244.86 28.335c-7.708-12.921-21.645-20.835-36.691-20.835h-85.416c-23.545 0-44.803 9.745-60 25.405 11.562-6.039 24.701-9.472 38.648-9.472h86.889c14.132 0 27.222 7.433 34.462 19.57.453.759 1.334 1.153 2.202.984l.237-.046c15.093-2.944 30.837 2.653 40.685 15.132 5.898 7.474 8.876 16.842 8.876 26.364v111.073h21.352v-125.96c.001-27.059-24.687-47.395-51.244-42.215z" fill="#2b4d66"/></g><g><path d="m318.322 504.5h-301.408c-5.154 0-9.332-4.178-9.332-9.332v-100.66c0-69.006 55.94-124.946 124.946-124.946h70.18c69.006 0 124.946 55.94 124.946 124.946v100.66c0 5.153-4.178 9.332-9.332 9.332z" fill="#f1f1f4"/><path d="m202.708 269.561h-31.549c69.006 0 124.946 55.94 124.946 124.946v100.66c0 5.154-4.178 9.332-9.332 9.332h31.549c5.154 0 9.332-4.178 9.332-9.332v-100.66c0-69.006-55.94-124.946-124.946-124.946z" fill="#dfeaef"/><path d="m167.617 373.861 63.828-98.257h-127.656z" fill="#d5985c"/></g><path d="m88.493 276.363 68.676 22.638c6.786 2.237 14.111 2.237 20.897 0l68.676-22.638c13.682-4.51 22.926-17.291 22.926-31.697v-76.589c0-.481-.01-.961-.031-1.438-.774-18.125-17.085-31.707-35.136-29.899-49.848 4.993-94.437-4.182-132.101-32.013-14.61-10.796-35.855-1.42-36.801 16.721-.022.428-.034.859-.034 1.294v121.924c.001 14.407 9.245 27.187 22.928 31.697z" fill="#f1b986"/><g><path d="m269.638 166.639c-.774-18.125-17.085-31.708-35.136-29.899-1.291.129-2.576.243-3.859.354 6.131 5.417 10.183 13.146 10.559 21.954.02.478.031.957.031 1.438v76.589c0 14.407-9.244 27.187-22.926 31.697l-68.677 22.638c-3.38 1.114-6.894 1.672-10.408 1.676l17.947 5.916c6.786 2.237 14.111 2.237 20.897 0l68.676-22.638c13.682-4.51 22.926-17.291 22.926-31.697v-76.589c.001-.482-.009-.962-.03-1.439z" fill="#e2a770"/></g><path d="m65.566 227.54h-8.945c-16.417 0-29.726-13.309-29.726-29.726 0-10.949 8.876-19.825 19.825-19.825h18.847v49.551z" fill="#d5985c"/><path d="m269.669 227.54h8.945c16.417 0 29.726-13.309 29.726-29.726 0-10.949-8.876-19.825-19.825-19.825h-18.847v49.551z" fill="#d5985c"/><path d="m167.618 296.886c-17.778 0-32.189-14.411-32.189-32.189v-20.155c0-17.777 14.411-32.189 32.189-32.189 17.777 0 32.189 14.411 32.189 32.189v20.155c0 17.777-14.412 32.189-32.189 32.189z" fill="#78d0b1"/><path d="m167.618 212.352c-3.511 0-6.888.57-10.051 1.609 12.853 4.223 22.138 16.313 22.138 30.58v20.155c0 14.266-9.284 26.357-22.138 30.58 3.164 1.039 6.54 1.609 10.051 1.609 17.777 0 32.189-14.412 32.189-32.189v-20.155c0-17.777-14.412-32.189-32.189-32.189z" fill="#70b9c6"/><path d="m476.193 504.5h-81.835c-10.155 0-18.388-8.233-18.388-18.388v-211.724c0-10.155 8.233-18.388 18.388-18.388h81.835c10.155 0 18.388 8.233 18.388 18.388v211.724c0 10.155-8.232 18.388-18.388 18.388z" fill="#78d0b1"/><path d="m476.193 256h-19.601c10.155 0 18.388 8.232 18.388 18.388v211.724c0 10.155-8.233 18.388-18.388 18.388h19.601c10.155 0 18.388-8.233 18.388-18.388v-211.724c0-10.156-8.232-18.388-18.388-18.388z" fill="#70b9c6"/><path d="m494.581 439.483h-33.775c-14.1 0-25.53-11.43-25.53-25.53v-67.407c0-14.1 11.43-25.53 25.53-25.53h33.775z" fill="#f1f1f4"/><path d="m474.981 321.016h19.601v118.467h-19.601z" fill="#dfeaef"/><path d="m463.762 256h-56.973v-23.247c0-5.517 4.473-9.99 9.99-9.99h36.993c5.517 0 9.99 4.473 9.99 9.99z" fill="#365e7d"/><path d="m453.772 222.763h-20.178c5.517 0 9.99 4.473 9.99 9.99v23.247h20.178v-23.248c0-5.517-4.473-9.989-9.99-9.989z" fill="#2b4d66"/><g><path d="m127.424 214.756c4.142 0 7.5-3.357 7.5-7.5v-10.746c0-4.143-3.358-7.5-7.5-7.5s-7.5 3.357-7.5 7.5v10.746c0 4.142 3.358 7.5 7.5 7.5z"/><path d="m207.812 214.756c4.142 0 7.5-3.357 7.5-7.5v-10.746c0-4.143-3.358-7.5-7.5-7.5s-7.5 3.357-7.5 7.5v10.746c0 4.142 3.357 7.5 7.5 7.5z"/><path d="m504.418 459.541h-2.337c0-12.83 0-130.958 0-163.961h2.337c4.143 0 7.5-3.357 7.5-7.5s-3.357-7.5-7.5-7.5h-2.337v-6.192c0-14.274-11.613-25.888-25.889-25.888h-4.931v-15.747c0-9.645-7.846-17.49-17.49-17.49h-10.996v-28.008c0-21.112-17.176-38.288-38.288-38.288h-25.47c-21.112 0-38.288 17.176-38.288 38.288v179.82c0 8.234-2.055 15.994-5.667 22.807-1.699-48.459-29.976-92.075-72.763-113.672 18.969-15.617 14.158-36.941 14.869-41.17h1.445c20.526 0 37.227-16.7 37.227-37.227 0-9.492-4.868-17.866-12.235-22.765v-104.498c0-15.146-6.705-29.355-18.395-38.986-10.372-8.544-23.532-12.546-36.748-11.314-9.4-12.603-24.413-20.25-40.293-20.25h-85.416c-30.435 0-58.741 15.111-75.72 40.424-2.308 3.439-1.389 8.099 2.051 10.406 3.439 2.308 8.098 1.389 10.406-2.051 14.189-21.151 37.839-33.779 63.263-33.779h85.416c12.338 0 23.929 6.582 30.25 17.178 1.621 2.716 4.77 4.122 7.877 3.519 10.452-2.038 21.158.676 29.376 7.445 8.219 6.771 12.933 16.76 12.933 27.408v99.942c-.259-.004-6.719-.002-11.437-.002-.179-.842 1.88-18.436-13.401-31.681-8.241-7.143-19.182-10.618-30.012-9.531-50.667 5.079-92.178-4.928-126.897-30.583-19.879-14.69-48.792-1.138-48.792 24.048v47.747h-11.346c-.03 0-.059.002-.089.002v-79.37c0-5.387.582-10.815 1.729-16.133.874-4.049-1.7-8.04-5.749-8.913-4.049-.875-8.04 1.699-8.913 5.749-1.372 6.355-2.067 12.849-2.067 19.297v83.926c-7.368 4.899-12.236 13.273-12.236 22.766 0 20.526 16.7 37.227 37.226 37.227h1.445c.675 4.019-4.013 25.624 14.869 41.17-44.144 22.281-72.853 68.001-72.853 118.297v100.66c0 9.281 7.551 16.832 16.832 16.832h40.718c4.142 0 7.5-3.357 7.5-7.5s-3.358-7.5-7.5-7.5h-40.718c-1.01 0-1.832-.822-1.832-1.832v-100.66c0-48.54 30.159-92.263 75.294-109.627l13.357 4.403 55.048 84.741c-8.704 14.991-36.923 67.646-38.766 122.975h-32.396c-4.142 0-7.5 3.357-7.5 7.5s3.358 7.5 7.5 7.5h230.703c9.281 0 16.832-7.551 16.832-16.832v-81.191c12.641-11.676 20.576-28.377 20.576-46.902v-179.82c0-12.841 10.447-23.288 23.288-23.288h25.47c12.841 0 23.288 10.447 23.288 23.288v28.008h-10.997c-9.644 0-17.489 7.846-17.489 17.49v15.747h-4.932c-14.274 0-25.888 11.613-25.888 25.888v6.192h-2.338c-4.143 0-7.5 3.357-7.5 7.5s3.357 7.5 7.5 7.5h2.338v163.961h-2.338c-4.143 0-7.5 3.357-7.5 7.5s3.357 7.5 7.5 7.5h2.338v11.57c0 14.275 11.613 25.889 25.888 25.889h81.835c14.275 0 25.889-11.613 25.889-25.889v-11.57h2.337c4.143 0 7.5-3.357 7.5-7.5s-3.358-7.5-7.501-7.5zm-184.264-65.033v12.374c-7.99 5.695-17.752 9.06-28.29 9.06h-67.88c-24.224 0-44.378-17.722-48.203-40.879l55.72-85.778 13.358-4.403c45.136 17.363 75.295 61.086 75.295 109.626zm-111.414-97.72-33.622 51.76v-41.076c4.791-.886 5.099-1.408 33.622-10.684zm-16.433-32.092c0 13.614-11.075 24.689-24.689 24.689s-24.689-11.075-24.689-24.689v-20.154c0-13.614 11.075-24.689 24.689-24.689s24.689 11.075 24.689 24.689zm96.209-79.207c6.796 0 12.324 5.528 12.324 12.324 0 12.256-9.971 22.227-22.227 22.227h-1.445v-34.551zm-215.426-63.65c.625-11.99 14.869-18.461 24.854-11.08 37.324 27.579 83.518 38.827 137.306 33.444 6.749-.682 13.557 1.49 18.692 5.94 5.186 4.495 8.226 10.805 8.226 17.934v76.589c0 11.194-7.143 21.07-17.774 24.574l-41.545 13.695c2.841-5.465 4.457-11.665 4.457-18.239v-20.154c0-21.885-17.804-39.689-39.689-39.689s-39.689 17.805-39.689 39.689v20.154c0 6.574 1.616 12.773 4.457 18.239l-41.544-13.695c-10.631-3.504-17.774-13.38-17.774-24.574-.001-115.273-.013-122.129.023-122.827zm-16.469 98.201c-12.255 0-22.226-9.971-22.226-22.227 0-6.796 5.529-12.324 12.325-12.324h11.347v34.551zm103.497 87.431v41.078l-33.624-51.762c28.532 9.28 28.83 9.798 33.624 10.684zm160.036 187.697c0 1.01-.822 1.832-1.832 1.832h-183.296c1.547-41.618 19.605-82.706 30.583-104.062 9.947 22.363 32.362 38.004 58.375 38.004h67.88c10.155 0 19.757-2.394 28.29-6.628zm94.136-262.415c0-1.373 1.116-2.49 2.489-2.49h36.993c1.373 0 2.49 1.117 2.49 2.49v15.747h-41.972zm-30.82 41.635c0-6.004 4.884-10.888 10.888-10.888h81.835c6.004 0 10.889 4.884 10.889 10.888v6.192h-103.612zm0 21.192h103.611v17.936h-26.275c-18.213 0-33.03 14.817-33.03 33.03v18.71c0 4.143 3.357 7.5 7.5 7.5s7.5-3.357 7.5-7.5v-18.71c0-9.942 8.088-18.03 18.03-18.03h26.275v103.468h-26.275c-9.942 0-18.03-8.088-18.03-18.03v-18.71c0-4.143-3.357-7.5-7.5-7.5s-7.5 3.357-7.5 7.5v18.71c0 18.213 14.817 33.03 33.03 33.03h26.275v12.558h-103.611zm103.612 190.531c0 6.004-4.885 10.889-10.889 10.889h-81.835c-6.004 0-10.888-4.885-10.888-10.889v-11.57h103.611v11.57z"/></g></g></svg>