<?xml version="1.0"?>
<svg xmlns="http://www.w3.org/2000/svg" xmlns:xlink="http://www.w3.org/1999/xlink" xmlns:svgjs="http://svgjs.com/svgjs" version="1.1" width="512" height="512" x="0" y="0" viewBox="0 0 512.008 512.008" style="enable-background:new 0 0 512 512" xml:space="preserve" class=""><g><g xmlns="http://www.w3.org/2000/svg"><g><g><g><g><path d="m10.504 146.646c.011 1.829.344 3.652.993 5.384l8.366 22.975c2.664 7.103 10.051 11.261 17.506 9.851l83.277-16.505c6.364-1.203 11.322-6.214 12.459-12.59l2.88-2.933 5.667-31.774-4.618-2.556-124.398 24.169z" fill="#1e2284" data-original="#ffa442" style="" class=""/><path d="m35.369 186.856 3.961-.749 83.316-15.756c6.364-1.203 11.322-6.214 12.459-12.59l.583-3.271.296-1.661-100.624 19.029c-2.389.452-4.757-.881-5.611-3.157l-6.252-16.671c-.995-2.653-1.258-5.457-.748-8.232l-3.314-3.179-9.972 2.654-1.956 3.441c.025 1.834.347 3.596.991 5.317l9.366 24.975c2.488 6.959 10.263 11.339 17.505 9.85z" fill="#5b61eb" data-original="#ff8a3c" style="" class=""/></g><g><path d="m375.356 121.055 4.547 33.707c1.137 6.376 6.095 11.386 12.459 12.59l79.876 15.908c7.454 1.41 17.243-.151 19.907-7.254l2.644-.717 8.722-23.259c.642-1.712.975-3.515.993-5.323l-2.903-4.311-126.712-24.474z" fill="#1e2284" data-original="#ffa442" style="" class=""/><path d="m394.925 156.403c-2.025-.383-3.607-1.969-3.986-3.994l-3.666-19.606c-.607-3.402-1.232-6.379-2.18-8.93l-3.196-3.084-10.322-1.501-1.22 1.767 6.099 34.197c.558 7.191 5.576 13.868 12.907 15.1l87.277 16.505c7.454 1.41 14.842-2.748 17.506-9.851l.644-1.717z" fill="#5b61eb" data-original="#ff8a3c" style="" class=""/></g><g><path d="m372.089 119.288c-.885-4.961-6.932-6.807-11.972-6.807h-2.921l-2.32-3-67.488-.08-1.853 3.08h-59.064l-2.234-3-67.41.913-2.016 2.087h-2.921c-5.039 0-9.354 3.613-10.239 8.574l-125.66 24.035c-.008-1.285-.575-12.314-.264-13.575l7.66-28.34c2.959-11.986 8.99-36.512 19.691-41.904 3.309-1.667 6.848-2.817 10.592-3.562l62.404-12.424c46.078-9.174 92.947-13.794 139.929-13.794 46.982 0 93.851 4.62 139.929 13.794l62.404 12.424c15.852 3.156 28.449 15.193 32.324 30.884l13.388 54.221c.316 1.281.467 2.589.454 3.894l-119.41-22.834z" fill="#1f25af" data-original="#ffbf54" style="" class=""/><g fill="#ffa442"><path d="m22.749 143.798 20.33-82.528s-16.372 7.053-21.732 27.322l-13.388 54.221c-.322 1.305-.472 2.571-.453 3.901z" fill="#1e2284" data-original="#ffa442" style="" class=""/><path d="m385.095 123.872c-2.814-7.577-8.476-11.392-24.977-11.392 5.04 0 9.354 3.613 10.239 8.574z" fill="#1e2284" data-original="#ffa442" style="" class=""/><path d="m211.472 78.127h-41.661c-8.284 0-15 6.716-15 15v19.354h71.661v-19.354c0-8.284-6.715-15-15-15z" fill="#1e2284" data-original="#ffa442" style="" class=""/><path d="m342.197 78.127h-41.661c-8.284 0-15 6.716-15 15v19.354h71.661v-19.354c0-8.284-6.716-15-15-15z" fill="#1e2284" data-original="#ffa442" style="" class=""/></g></g></g><g><path d="m333.877 93.127h-18.47l-4.68 2c-4.595 0-8.32 3.725-8.32 8.32l1 32.553c0 4.595-6.725 8.32-11.32 8.32h-72.164c-4.595 0-8.32-3.725-8.32-8.32v-34.553c0-4.595-3.725-8.32-8.32-8.32h-18.47l-4.68 2c-4.595 0-8.32 3.725-8.32 8.32v83.708h167.385l3-15v-70.708c-.001-4.595-3.726-8.32-8.321-8.32z" fill="#1f25af" data-original="#ffbf54" style="" class=""/><g fill="#ffa442"><path d="m315.407 134.32v-41.193h-6.68c-4.595 0-8.32 3.725-8.32 8.32v34.553c-.001.553-.059 3.52-2.46 5.903-2.373 2.356-5.297 2.416-5.86 2.417h13.32c5.522 0 10-4.477 10-10z" fill="#1e2284" data-original="#ffa442" style="" class=""/><path d="m184.811 167.155v-74.028h-6.68c-4.595 0-8.32 3.725-8.32 8.32v88.708h172.385v-18h-152.385c-2.761 0-5-2.238-5-5z" fill="#1e2284" data-original="#ffa442" style="" class=""/></g></g></g><g><path d="m449.313 389.497v75.393c0 .211-.014.42-.022.629-.33 8.34-19.951 12.719-28.372 12.719l-340.595.281c-8.632 0-15.629-6.997-15.629-15.629l1-73.393c0-2.017.39-4.014 1.149-5.883l73.394-184.1c2.394-5.892 8.12-9.746 14.479-9.746l3.946-2.613h199.16c6.36 0 12.086 3.854 14.479 9.746l75.86 186.713c.761 1.869 1.151 3.867 1.151 5.883z" fill="#1f25af" data-original="#ffbf54" style="" class=""/><path d="m77.695 460.519v-70.112c0-.636.122-1.267.358-1.858l80.611-201.394h-4.48c-6.36 0-12.086 3.854-14.48 9.746l-75.86 186.713c-.759 1.868-1.149 3.866-1.149 5.883v75.393c-.117 8.416 7.213 15.745 15.629 15.629h355.36c8.419 0 15.274-6.662 15.607-15h-366.596c-2.761 0-5-2.238-5-5z" fill="#1e2284" data-original="#ffa442" style="" class=""/></g><g><g><path d="m365.704 333.837c0-60.586-49.114-109.7-109.7-109.7-26.473 0-50.755 9.378-69.708 24.992-24.421 20.12-37.992 68.893-37.992 84.708 0 60.586 47.114 107.7 107.7 107.7 7.946 0 64.558-13.576 84.679-37.956 15.649-18.963 25.021-43.237 25.021-69.744z" fill="#f7f3f1" data-original="#f7f3f1" style=""/><path d="m271.004 428.537c-60.586 0-109.7-49.114-109.7-109.7 0-26.473 9.378-50.756 24.992-69.708-24.422 20.12-39.992 50.595-39.992 84.708 0 60.586 49.114 109.7 109.7 109.7 34.112 0 64.559-15.535 84.679-39.956-18.953 15.614-43.206 24.956-69.679 24.956z" fill="#eae2df" data-original="#eae2df" style=""/></g><g><path d="m277.004 333.837c0-11.598-9.402-21-21-21-2.814 0-5.497.558-7.949 1.562-7.656 3.134-11.902 18.863-11.902 19.438 0 11.598 8.253 19.851 19.851 19.851 2.028 0 16.304-4.247 19.438-11.902 1.004-2.452 1.562-5.135 1.562-7.949z" fill="#eae2df" data-original="#eae2df" style=""/><path d="m267.49 343.352c-11.598 0-21-9.402-21-21 0-2.814.561-5.499 1.565-7.952-7.655 3.134-13.051 10.654-13.051 19.438 0 11.598 9.402 21 21 21 8.784 0 16.304-5.396 19.438-13.051-2.453 1.004-5.138 1.565-7.952 1.565z" fill="#ddd3ce" data-original="#ddd3ce" style=""/></g><g><path d="m273.504 270.107c0-9.665-7.835-17.5-17.5-17.5-1.693 0-3.312.243-4.86.691-7.291 2.112-11.443 14.954-11.443 16.809 0 9.665 6.639 16.304 16.304 16.304 1.96 0 14.658-4.153 16.797-11.402.463-1.573.702-3.179.702-4.902z" fill="#eae2df" data-original="#eae2df" style=""/><path d="m267.969 275.643c-9.665 0-17.5-7.835-17.5-17.5 0-1.682.232-3.305.675-4.844-7.307 2.102-12.64 8.825-12.64 16.809 0 9.665 7.835 17.5 17.5 17.5 7.983 0 14.695-5.292 16.797-12.599-1.539.442-3.151.634-4.832.634z" fill="#ddd3ce" data-original="#ddd3ce" style=""/></g><g><path d="m273.504 397.568c0-9.665-7.835-17.5-17.5-17.5-1.693 0-3.312.243-4.86.691-7.291 2.112-11.443 14.954-11.443 16.809 0 9.665 6.639 16.304 16.304 16.304 1.96 0 14.658-4.153 16.797-11.402.463-1.574.702-3.179.702-4.902z" fill="#eae2df" data-original="#eae2df" style=""/><path d="m267.969 403.103c-9.665 0-17.5-7.835-17.5-17.5 0-1.682.232-3.305.675-4.844-7.307 2.102-12.64 8.825-12.64 16.809 0 9.665 7.835 17.5 17.5 17.5 7.983 0 14.695-5.292 16.797-12.599-1.539.443-3.151.634-4.832.634z" fill="#ddd3ce" data-original="#ddd3ce" style=""/></g><g><path d="m328.696 301.972c0-9.665-7.835-17.5-17.5-17.5-1.693 0-3.312.243-4.861.691-7.291 2.112-11.443 14.954-11.443 16.809 0 9.665 6.639 16.303 16.304 16.303 1.96 0 14.658-4.153 16.797-11.402.464-1.572.703-3.178.703-4.901z" fill="#eae2df" data-original="#eae2df" style=""/><path d="m323.161 307.508c-9.665 0-17.5-7.835-17.5-17.5 0-1.682.232-3.305.675-4.844-7.307 2.102-12.64 8.825-12.64 16.809 0 9.665 7.835 17.5 17.5 17.5 7.983 0 14.695-5.292 16.797-12.599-1.539.442-3.15.634-4.832.634z" fill="#ddd3ce" data-original="#ddd3ce" style=""/></g><g><path d="m218.312 301.972c0-9.665-7.835-17.5-17.5-17.5-1.693 0-3.312.243-4.86.691-7.291 2.112-11.443 14.954-11.443 16.809 0 9.665 6.639 16.303 16.304 16.303 1.96 0 14.658-4.153 16.797-11.402.463-1.572.702-3.178.702-4.901z" fill="#eae2df" data-original="#eae2df" style=""/><path d="m212.777 307.508c-9.665 0-17.5-7.835-17.5-17.5 0-1.682.232-3.305.675-4.844-7.307 2.102-12.64 8.825-12.64 16.809 0 9.665 7.835 17.5 17.5 17.5 7.983 0 14.695-5.292 16.797-12.599-1.54.442-3.151.634-4.832.634z" fill="#ddd3ce" data-original="#ddd3ce" style=""/></g><g><path d="m328.696 365.7c0-9.665-7.835-17.5-17.5-17.5-1.693 0-3.312.243-4.861.691-7.291 2.112-11.443 14.954-11.443 16.809 0 9.665 6.639 16.304 16.304 16.304 1.96 0 14.658-4.153 16.797-11.402.464-1.573.703-3.179.703-4.902z" fill="#eae2df" data-original="#eae2df" style=""/><path d="m323.161 371.236c-9.665 0-17.5-7.835-17.5-17.5 0-1.682.232-3.305.675-4.844-7.307 2.102-12.64 8.825-12.64 16.809 0 9.665 7.835 17.5 17.5 17.5 7.983 0 14.695-5.292 16.797-12.599-1.539.442-3.15.634-4.832.634z" fill="#ddd3ce" data-original="#ddd3ce" style=""/></g><g><path d="m218.312 365.7c0-9.665-7.835-17.5-17.5-17.5-1.693 0-3.312.243-4.86.691-7.291 2.112-11.443 14.954-11.443 16.809 0 9.665 6.639 16.304 16.304 16.304 1.96 0 14.658-4.153 16.797-11.402.463-1.573.702-3.179.702-4.902z" fill="#eae2df" data-original="#eae2df" style=""/><path d="m212.777 371.236c-9.665 0-17.5-7.835-17.5-17.5 0-1.682.232-3.305.675-4.844-7.307 2.102-12.64 8.825-12.64 16.809 0 9.665 7.835 17.5 17.5 17.5 7.983 0 14.695-5.292 16.797-12.599-1.54.442-3.151.634-4.832.634z" fill="#ddd3ce" data-original="#ddd3ce" style=""/></g></g></g><g><path d="m511.33 141.015-13.388-54.221c-4.55-18.431-19.521-32.735-38.141-36.442l-62.404-12.424c-46.454-9.249-94.025-13.939-141.394-13.939-44.786 0-89.812 4.197-133.826 12.474-4.071.765-6.751 4.686-5.985 8.757.766 4.07 4.692 6.755 8.757 5.984 43.104-8.105 87.196-12.215 131.055-12.215 46.387 0 92.973 4.592 138.464 13.65l62.405 12.424c12.939 2.576 23.345 12.518 26.507 25.327l11.569 46.854-118.953-22.603c-3.009-5.807-9.042-9.66-15.879-9.66h-10.421v-3.534c0-8.723-7.097-15.82-15.819-15.82h-25.15c-8.724 0-15.82 7.097-15.82 15.82v3.534h-73.805v-3.534c0-8.723-7.097-15.82-15.82-15.82h-25.15c-8.723 0-15.819 7.097-15.819 15.82v3.534h-10.421c-6.837 0-12.87 3.854-15.879 9.66l-118.954 22.603 11.569-46.854c3.162-12.81 13.567-22.75 26.508-25.327l35.412-7.051c4.062-.809 6.699-4.758 5.891-8.82-.809-4.062-4.759-6.703-8.82-5.891l-35.411 7.051c-18.62 3.707-33.592 18.011-38.142 36.442l-13.388 54.22c-1.123 4.545-.847 9.265.797 13.649l9.366 24.974c3.435 9.163 12.114 14.996 21.591 14.995 1.43 0 2.88-.133 4.331-.408l87.276-16.504c9.361-1.77 16.776-9.261 18.45-18.642l6.546-36.708c.247-1.385 1.448-2.391 2.855-2.391h10.421v59.675h-8.128c-9.458 0-17.869 5.662-21.428 14.423l-75.858 186.71c-1.13 2.777-1.702 5.707-1.702 8.708v75.393c0 12.753 10.376 23.129 23.129 23.129h200.616c4.143 0 7.5-3.358 7.5-7.5s-3.357-7.5-7.5-7.5h-200.615c-4.482 0-8.129-3.646-8.129-8.129v-75.393c0-1.055.201-2.083.598-3.06l75.859-186.713c1.251-3.079 4.207-5.069 7.531-5.069h203.641c3.324 0 6.28 1.99 7.531 5.069l27.968 68.837c1.559 3.836 5.931 5.686 9.771 4.125 3.837-1.559 5.685-5.934 4.125-9.771l-27.968-68.837c-3.559-8.762-11.97-14.423-21.428-14.423h-8.128v-59.675h10.421c1.407 0 2.608 1.005 2.855 2.391l6.546 36.708c1.674 9.38 9.089 16.872 18.45 18.642l87.276 16.505c1.451.274 2.9.407 4.331.407 9.477 0 18.156-5.833 21.591-14.995l9.366-24.975c1.645-4.381 1.921-9.101.798-13.646zm-390.078 21.967-87.276 16.504c-3.878.739-7.703-1.417-9.09-5.115l-8.173-21.793 115.616-21.969-4.607 25.835c-.587 3.29-3.187 5.917-6.47 6.538zm171.655-43.001v16.019c0 .452-.368.82-.82.82h-72.164c-.452 0-.82-.368-.82-.82v-16.02h73.804zm-115.595 59.675v-78.208c0-.452.367-.82.819-.82h25.15c.452 0 .82.368.82.82v34.552c0 8.723 7.097 15.82 15.82 15.82h72.164c8.724 0 15.82-7.097 15.82-15.82v-34.553c0-.452.368-.82.82-.82h25.15c.452 0 .819.368.819.82v78.208h-157.382zm300.721-.169-87.276-16.505c-3.283-.621-5.883-3.248-6.47-6.537l-4.607-25.836 115.616 21.969-8.173 21.794c-1.386 3.697-5.209 5.852-9.09 5.115z" fill="#000000" data-original="#000000" style="" class=""/><path d="m420.37 295.283c-1.56-3.836-5.933-5.688-9.771-4.125-3.837 1.559-5.685 5.934-4.125 9.771l34.742 85.511c.396.974.597 2.002.597 3.057v75.393c0 4.482-3.646 8.129-8.129 8.129h-119.743c-4.143 0-7.5 3.358-7.5 7.5s3.357 7.5 7.5 7.5h119.743c12.753 0 23.129-10.375 23.129-23.129v-75.393c0-3.001-.572-5.931-1.701-8.706z" fill="#000000" data-original="#000000" style="" class=""/><path d="m256.004 451.037c64.624 0 117.2-52.576 117.2-117.2s-52.576-117.2-117.2-117.2c-47.962 0-90.604 28.714-108.639 73.153-1.558 3.838.291 8.212 4.129 9.77 3.84 1.56 8.213-.292 9.77-4.129 15.728-38.753 52.915-63.793 94.74-63.793 56.354 0 102.2 45.847 102.2 102.2 0 56.354-45.847 102.2-102.2 102.2s-102.2-45.847-102.2-102.2c0-2.171.069-4.375.207-6.55.261-4.134-2.879-7.696-7.013-7.958-4.153-.256-7.696 2.88-7.958 7.013-.156 2.488-.236 5.009-.236 7.495 0 64.624 52.576 117.199 117.2 117.199z" fill="#000000" data-original="#000000" style="" class=""/><path d="m256.004 359.621c14.217 0 25.783-11.566 25.783-25.784 0-14.217-11.566-25.783-25.783-25.783s-25.783 11.566-25.783 25.783c0 14.218 11.566 25.784 25.783 25.784zm0-36.567c5.946 0 10.783 4.837 10.783 10.783s-4.837 10.784-10.783 10.784-10.783-4.837-10.783-10.784c0-5.946 4.837-10.783 10.783-10.783z" fill="#000000" data-original="#000000" style="" class=""/><path d="m256.004 292.234c12.201 0 22.127-9.926 22.127-22.126s-9.926-22.127-22.127-22.127-22.127 9.926-22.127 22.127 9.926 22.126 22.127 22.126zm0-29.254c3.93 0 7.127 3.197 7.127 7.127s-3.197 7.126-7.127 7.126-7.127-3.197-7.127-7.126 3.198-7.127 7.127-7.127z" fill="#000000" data-original="#000000" style="" class=""/><path d="m200.814 324.099c12.201 0 22.127-9.926 22.127-22.126s-9.926-22.127-22.127-22.127-22.127 9.926-22.127 22.127 9.926 22.126 22.127 22.126zm0-29.254c3.93 0 7.127 3.197 7.127 7.127s-3.197 7.126-7.127 7.126-7.127-3.197-7.127-7.126 3.197-7.127 7.127-7.127z" fill="#000000" data-original="#000000" style="" class=""/><path d="m200.814 387.829c12.201 0 22.127-9.926 22.127-22.126s-9.926-22.127-22.127-22.127-22.127 9.926-22.127 22.127 9.926 22.126 22.127 22.126zm0-29.253c3.93 0 7.127 3.197 7.127 7.127s-3.197 7.126-7.127 7.126-7.127-3.197-7.127-7.126 3.197-7.127 7.127-7.127z" fill="#000000" data-original="#000000" style="" class=""/><path d="m256.004 419.695c12.201 0 22.127-9.926 22.127-22.126s-9.926-22.127-22.127-22.127-22.127 9.926-22.127 22.127 9.926 22.126 22.127 22.126zm0-29.254c3.93 0 7.127 3.197 7.127 7.127s-3.197 7.126-7.127 7.126-7.127-3.197-7.127-7.126 3.198-7.127 7.127-7.127z" fill="#000000" data-original="#000000" style="" class=""/><path d="m311.194 387.829c12.201 0 22.127-9.926 22.127-22.126s-9.926-22.127-22.127-22.127-22.127 9.926-22.127 22.127 9.926 22.126 22.127 22.126zm0-29.253c3.93 0 7.127 3.197 7.127 7.127s-3.197 7.126-7.127 7.126-7.127-3.197-7.127-7.126 3.198-7.127 7.127-7.127z" fill="#000000" data-original="#000000" style="" class=""/><path d="m311.194 324.131c12.201 0 22.127-9.926 22.127-22.126s-9.926-22.127-22.127-22.127-22.127 9.926-22.127 22.127 9.926 22.126 22.127 22.126zm0-29.253c3.93 0 7.127 3.197 7.127 7.127s-3.197 7.126-7.127 7.126-7.127-3.197-7.127-7.126 3.198-7.127 7.127-7.127z" fill="#000000" data-original="#000000" style="" class=""/><path d="m95.605 430.137c-4.143 0-7.5 3.358-7.5 7.5s3.357 7.5 7.5 7.5h43.908c4.143 0 7.5-3.358 7.5-7.5s-3.357-7.5-7.5-7.5z" fill="#000000" data-original="#000000" style="" class=""/></g></g></g></svg>
